<?xml version="1.0" standalone="no"?><!DOCTYPE svg PUBLIC "-//W3C//DTD SVG 1.1//EN" "http://www.w3.org/Graphics/SVG/1.1/DTD/svg11.dtd"><svg t="1687324271650" class="icon" viewBox="0 0 1086 1024" version="1.1" xmlns="http://www.w3.org/2000/svg" p-id="16511" xmlns:xlink="http://www.w3.org/1999/xlink" width="135.75" height="128"><path d="M974.89266 635.22968a48.589027 48.589027 0 0 1-48.427869 44.936121H282.505739l16.250062 80.41766h659.269027c15.551712 0 28.148867 12.570296 28.148867 28.068288s-12.597155 28.068288-28.148867 28.068288H275.737118c-13.402943 0-24.925714-9.427722-27.584815-22.50835L99.591823 59.467168h-67.149015A28.095148 28.095148 0 0 1 4.293941 31.398879C4.293941 15.900887 16.891096 3.330591 32.442808 3.330591h90.167697c13.402943 0 24.925714 9.400862 27.584815 22.50835l14.235591 70.425887c0.510333 0 0.966946-0.295456 1.477279-0.295456h862.649963c26.779027 0 48.562168 21.729421 48.562168 48.454729v2.900837L974.89266 635.22968zM175.846244 152.132808l98.870209 471.896416h645.033436l98.87021-471.896416H175.846244z m200.104064 723.14117a69.620099 69.620099 0 0 1 69.700677 69.53952c0 38.409236-31.210862 69.566379-69.700677 69.566379a69.646958 69.646958 0 0 1-69.700677-69.566379 69.620099 69.620099 0 0 1 69.700677-69.53952z m467.357143 0a69.620099 69.620099 0 0 1 69.700677 69.53952c0 38.409236-31.210862 69.566379-69.700677 69.566379a69.646958 69.646958 0 0 1-69.700677-69.566379 69.620099 69.620099 0 0 1 69.700677-69.53952z" fill="#12193E" p-id="16512"></path></svg>