<?xml version="1.0" standalone="no"?><!DOCTYPE svg PUBLIC "-//W3C//DTD SVG 1.1//EN" "http://www.w3.org/Graphics/SVG/1.1/DTD/svg11.dtd"><svg t="1687324257168" class="icon" viewBox="0 0 1024 1024" version="1.1" xmlns="http://www.w3.org/2000/svg" p-id="16350" xmlns:xlink="http://www.w3.org/1999/xlink" width="128" height="128"><path d="M384 192l320 0 0 128-320 0 0-128Z" fill="#231815" p-id="16351"></path><path d="M640 384l320 0 0 128-320 0 0-128Z" fill="#231815" p-id="16352"></path><path d="M768 192l192 0 0 128-192 0 0-128Z" fill="#231815" p-id="16353"></path><path d="M448 384l128 0 0 128-128 0 0-128Z" fill="#231815" p-id="16354"></path><path d="M0 256 250.688 256 384 576 960 576 960 704 291.968 704 160.064 384 0 384Z" fill="#231815" p-id="16355"></path><path d="M422.464 868.416m-80.448 0a1.257 1.257 0 1 0 160.896 0 1.257 1.257 0 1 0-160.896 0Z" fill="#231815" p-id="16356"></path><path d="M848.96 868.416m-80.448 0a1.257 1.257 0 1 0 160.896 0 1.257 1.257 0 1 0-160.896 0Z" fill="#231815" p-id="16357"></path></svg>