<?xml version="1.0" standalone="no"?><!DOCTYPE svg PUBLIC "-//W3C//DTD SVG 1.1//EN" "http://www.w3.org/Graphics/SVG/1.1/DTD/svg11.dtd"><svg t="1687324306330" class="icon" viewBox="0 0 1024 1024" version="1.1" xmlns="http://www.w3.org/2000/svg" p-id="18301" xmlns:xlink="http://www.w3.org/1999/xlink" width="128" height="128"><path d="M321.22 876.87m-64 0a64 64 0 1 0 128 0 64 64 0 1 0-128 0Z" fill="#666666" p-id="18302"></path><path d="M738.23 876.87m-64 0a64 64 0 1 0 128 0 64 64 0 1 0-128 0Z" fill="#666666" p-id="18303"></path><path d="M918.93 192.84H199.37a32.24 32.24 0 0 0-4.48 0.32l-10.69-60.63q-0.08-0.44-0.17-0.88c-3.16-15.39-11.9-28.34-25.3-37.48-15.25-10.4-35.5-15.31-61.92-15a32 32 0 0 0 0.33 64h0.34c14.9-0.15 21.75 2.21 24.19 3.38L226.35 740.6A44.06 44.06 0 0 0 270.2 781H801a32 32 0 1 0 0-64H287.17l-7.9-44.83h543.32c21.19 0 38.75-15 41.54-34.4L960 240.13a32 32 0 0 0 0.89-7.5c-0.04-21.94-18.89-39.79-41.96-39.79z m-113.5 415.29H270.06c-0.69 0-1.37 0-2 0.07L206.1 256.84h684z" fill="#666666" p-id="18304"></path><path d="M471.83 497.69h52.36v69.72h42.56v-69.72h53.76v12.6h42.56V338.93h-96.32v-37.52h-42.56v37.52h-93V512h40.6z m94.92-119.84h53.76v21.56h-53.76z m0 58.8h53.76v22.12h-53.76z m-94.92-58.8h52.36v21.56h-52.36z m0 58.8h52.36v22.12h-52.36z" fill="#666666" p-id="18305"></path></svg>