<?xml version="1.0" standalone="no"?><!DOCTYPE svg PUBLIC "-//W3C//DTD SVG 1.1//EN" "http://www.w3.org/Graphics/SVG/1.1/DTD/svg11.dtd"><svg t="1687324565358" class="icon" viewBox="0 0 1024 1024" version="1.1" xmlns="http://www.w3.org/2000/svg" p-id="26659" xmlns:xlink="http://www.w3.org/1999/xlink" width="128" height="128"><path d="M580.56 505.25H461.93v60.81h118.63zM461.93 684.93h118.63v-60.81H461.93zM488 164.62L355.87 313.15c-18.15 20.44-18.15 53.43-0.18 73.93h106.24v60.81h118.63v-60.81h105.88c18-20.51 18-53.55-0.18-73.93L554.11 164.62c-18.21-20.5-47.81-20.5-66.11 0zM792.09 550.75C699.26 550.75 624 626.06 624 719s75.26 168.2 168.09 168.2 168.1-75.35 168.1-168.2-75.26-168.25-168.1-168.25z m0 295.62A127.43 127.43 0 1 1 919.44 719a127.39 127.39 0 0 1-127.35 127.38z" p-id="26660"></path><path d="M851.35 661.64l-88 88.65-34.56-38.88a12.78 12.78 0 0 0-17.73 0 12.64 12.64 0 0 0 0 17.88l46.55 46.9a12.43 12.43 0 0 0 9.75 3.63 12.24 12.24 0 0 0 9.73-3.63l96-96.67a12.66 12.66 0 0 0 0-17.88c-4.73-4.79-12.98-4.79-21.74 0zM592.33 829.52H155.72a34.16 34.16 0 0 1-34.11-34.13V228.12A34.16 34.16 0 0 1 155.72 194h120.89a28.82 28.82 0 0 0 0-57.63H155.72A91.84 91.84 0 0 0 64 228.12v567.27a91.84 91.84 0 0 0 91.71 91.77h436.62a28.82 28.82 0 0 0 0-57.63zM868.48 136.35H743.77a28.82 28.82 0 0 0 0 57.63h124.71a34.16 34.16 0 0 1 34.11 34.13v280a28.8 28.8 0 1 0 57.6 0v-280a91.84 91.84 0 0 0-91.71-91.76z" p-id="26661"></path></svg>