<?xml version="1.0" standalone="no"?><!DOCTYPE svg PUBLIC "-//W3C//DTD SVG 1.1//EN" "http://www.w3.org/Graphics/SVG/1.1/DTD/svg11.dtd"><svg t="1687324561411" class="icon" viewBox="0 0 1024 1024" version="1.1" xmlns="http://www.w3.org/2000/svg" p-id="26346" xmlns:xlink="http://www.w3.org/1999/xlink" width="128" height="128"><path d="M396.288 735.8464c2.2528-57.7536 29.2864-340.3776 343.04-352.8704v-90.9312c-0.4096-5.12-0.2048-16.7936 8.192-26.0096 9.6256-10.6496 25.3952-13.1072 43.4176-5.5296l4.096 1.8432 176.3328 183.0912c3.4816 3.8912 18.432 21.9136 18.432 42.8032 0 21.9136-18.6368 40.5504-22.3232 44.032l-176.5376 194.1504c-4.5056 4.7104-15.36 14.1312-29.4912 14.1312-10.8544 0-20.6848-5.9392-26.0096-15.5648-3.6864-6.7584-5.3248-15.1552-5.3248-26.624v-110.1824c-50.7904-1.2288-199.2704 8.8064-285.9008 159.5392-5.7344 9.8304-14.5408 15.5648-24.1664 15.5648h-9.216l-7.5776-6.7584c-7.5776-7.5776-7.168-17.408-6.9632-20.6848zM722.944 546.6112c19.456 0 31.5392 1.6384 32.1536 1.6384l18.6368 2.4576v131.4816L935.936 503.808c5.7344-5.5296 10.4448-13.1072 10.4448-15.7696 0-4.3008-4.5056-11.6736-7.7824-15.36l-156.0576-161.9968V423.936h-21.7088c-223.6416 0-292.2496 145.408-312.9344 244.5312 94.0032-108.7488 219.9552-121.856 275.0464-121.856z m-196.8128-225.4848c0-18.0224-14.7456-32.768-32.768-32.768H250.6752c-18.0224 0-32.768 14.7456-32.768 32.768s14.7456 32.768 32.768 32.768h242.688c18.0224 0 32.768-14.7456 32.768-32.768z m-176.7424 256.6144h-98.7136c-18.0224 0-32.768 14.7456-32.768 32.768s14.7456 32.768 32.768 32.768h98.7136c18.0224 0 32.768-14.7456 32.768-32.768s-14.5408-32.768-32.768-32.768z m59.392-112.0256c0-18.0224-14.7456-32.768-32.768-32.768h-125.3376c-18.0224 0-32.768 14.7456-32.768 32.768s14.7456 32.768 32.768 32.768h125.3376c18.2272 0.2048 32.768-14.5408 32.768-32.768z m0 0" p-id="26347"></path><path d="M822.8864 765.3376v47.104c0 31.9488-30.72 57.9584-62.8736 57.9584H171.008c-31.9488 0-57.9584-26.0096-57.9584-57.9584V209.1008v-3.072c1.6384-30.72 26.8288-55.0912 57.9584-55.0912h603.3408c30.9248 0 56.32 24.3712 57.9584 55.0912v19.456s35.2256 53.8624 60.8256 87.2448v-106.7008c0-13.5168-2.4576-27.0336-6.9632-39.936-16.1792-44.4416-58.9824-76.1856-108.9536-76.1856H168.1408c-54.0672 0-99.5328 36.864-112.4352 87.04-2.4576 9.4208-3.6864 19.2512-3.6864 29.0816V815.104c0 64.1024 52.0192 116.1216 115.9168 116.1216h609.0752c58.9824 0 107.52-43.8272 115.0976-100.7616 0 0 0.8192-153.6-2.2528-150.7328-78.6432 85.6064-66.56 85.8112-66.9696 85.6064z" p-id="26348"></path></svg>