<?xml version="1.0" standalone="no"?><!DOCTYPE svg PUBLIC "-//W3C//DTD SVG 1.1//EN" "http://www.w3.org/Graphics/SVG/1.1/DTD/svg11.dtd"><svg t="1687324571833" class="icon" viewBox="0 0 1024 1024" version="1.1" xmlns="http://www.w3.org/2000/svg" p-id="26970" xmlns:xlink="http://www.w3.org/1999/xlink" width="128" height="128"><path d="M329.386667 525.653333h204.8c13.653333 0 25.6-5.12 25.6-13.653333v-8.533333c0-6.826667-11.946667-11.946667-25.6-11.946667h-204.8c-13.653333 0-25.6 5.12-25.6 11.946667v8.533333c0 8.533333 11.946667 13.653333 25.6 13.653333z m0-119.466666h290.133333c13.653333 0 25.6-5.12 25.6-13.653334v-8.533333c0-6.826667-11.946667-13.653333-25.6-13.653333h-290.133333c-13.653333 0-25.6 5.12-25.6 13.653333v8.533333c0 8.533333 11.946667 13.653333 25.6 13.653334z m418.133333 443.733333h-546.133333v-631.466667h51.2v-68.266666h-34.133334c-47.786667 0-85.333333 37.546667-85.333333 85.333333v597.333333c0 47.786667 37.546667 85.333333 85.333333 85.333334h512c47.786667 0 85.333333-20.48 85.333334-68.266667v-155.306667h-68.266667v155.306667z m-17.066667-699.733333h-34.133333v68.266666h51.2v85.333334h68.266667v-68.266667c0-47.786667-37.546667-85.333333-85.333334-85.333333z m-353.28 85.333333h194.56c30.72 0 56.32-20.48 56.32-44.373333v-13.653334c0-23.893333-25.6-44.373333-56.32-44.373333H377.173333c-30.72 0-56.32 20.48-56.32 44.373333v13.653334c0 23.893333 25.6 44.373333 56.32 44.373333z m-47.786666 409.6h153.6c13.653333 0 25.6-5.12 25.6-13.653333v-8.533334c0-6.826667-11.946667-13.653333-25.6-13.653333h-153.6c-13.653333 0-25.6 5.12-25.6 13.653333v8.533334c0 8.533333 11.946667 13.653333 25.6 13.653333z" fill="" p-id="26971"></path><path d="M551.253333 723.626667c-6.826667 0-11.946667-3.413333-11.946666-10.24-8.533333-76.8 6.826667-139.946667 44.373333-187.733334 25.6-30.72 59.733333-54.613333 102.4-69.973333 27.306667-10.24 49.493333-13.653333 63.146667-15.36l-8.533334-95.573333c0-3.413333 1.706667-8.533333 5.12-10.24 3.413333-1.706667 8.533333-1.706667 11.946667 0l191.146667 148.48c3.413333 1.706667 5.12 5.12 5.12 8.533333s-1.706667 6.826667-3.413334 8.533333l-160.426666 158.72c-3.413333 3.413333-6.826667 3.413333-11.946667 1.706667-3.413333-1.706667-6.826667-5.12-6.826667-8.533333l-8.533333-88.746667c-75.093333 10.24-133.12 37.546667-168.96 83.626667-27.306667 35.84-30.72 68.266667-32.426667 69.973333 0 1.706667-5.12 6.826667-10.24 6.826667z m220.16-186.026667c6.826667 0 11.946667 3.413333 11.946667 10.24l8.533333 78.506667 133.12-133.12-158.72-129.706667 8.533334 83.626667c0 3.413333 0 5.12-3.413334 8.533333s-5.12 5.12-8.533333 5.12h-3.413333c-17.066667 1.706667-104.106667 13.653333-158.72 80.213333-25.6 30.72-39.253333 68.266667-40.96 114.346667 3.413333-6.826667 8.533333-15.36 15.36-22.186667 18.773333-23.893333 40.96-42.666667 69.973333-58.026666 34.133333-20.48 76.8-32.426667 126.293333-37.546667z" fill="" p-id="26972"></path></svg>