<?xml version="1.0" standalone="no"?><!DOCTYPE svg PUBLIC "-//W3C//DTD SVG 1.1//EN" "http://www.w3.org/Graphics/SVG/1.1/DTD/svg11.dtd"><svg t="1658381876279" class="icon" viewBox="0 0 1024 1024" version="1.1" xmlns="http://www.w3.org/2000/svg" p-id="11712" width="128" height="128" xmlns:xlink="http://www.w3.org/1999/xlink"><defs><style type="text/css">@font-face { font-family: "feedback-iconfont"; src: url("//at.alicdn.com/t/font_1031158_u69w8yhxdu.woff2?t=1630033759944") format("woff2"), url("//at.alicdn.com/t/font_1031158_u69w8yhxdu.woff?t=1630033759944") format("woff"), url("//at.alicdn.com/t/font_1031158_u69w8yhxdu.ttf?t=1630033759944") format("truetype"); }
</style></defs><path d="M848.5358 77.932879h78.140294V945.341922h-78.140294zM143.05541 77.932879h78.140595V945.341922H143.05541z" fill="#ffffff" p-id="11713"></path><path d="M145.080489 867.926526h781.595304v78.140294H145.080489zM145.08079 77.932879h781.595906v78.140595H145.08079zM97.323906 306.394725h177.122014v78.140595H97.323906zM97.323906 469.623257h177.121713v78.142402H97.323906zM97.323906 637.299318h177.121713v78.141498H97.323906zM544.83235 244.291298c-91.558136 0-165.780728 74.222593-165.780729 165.780729s74.222593 165.780728 165.780729 165.780728c91.558738 0 165.781029-74.222593 165.781029-165.780728s-74.222593-165.780728-165.781029-165.780729z m0 290.75613c-69.021869 0-124.9751-55.953231-124.975101-124.9751s55.953231-124.9751 124.975101-124.975101c69.021267 0 124.974498 55.95293 124.974498 124.975101s-55.952328 124.9751-124.974498 124.9751zM358.378476 778.983803c19.431366-81.689827 92.874272-142.449422 180.510792-142.449422s161.079727 60.758993 180.511395 142.449422h61.854468c-20.378129-115.383144-121.135367-203.031104-242.365863-203.031104-121.229893 0-221.987734 87.647358-242.365863 203.031104h61.855071z" fill="#ffffff" p-id="11714"></path></svg>