<?xml version="1.0" standalone="no"?><!DOCTYPE svg PUBLIC "-//W3C//DTD SVG 1.1//EN" "http://www.w3.org/Graphics/SVG/1.1/DTD/svg11.dtd"><svg t="1658482234976" class="icon" viewBox="0 0 1024 1024" version="1.1" xmlns="http://www.w3.org/2000/svg" p-id="5458" xmlns:xlink="http://www.w3.org/1999/xlink" width="200" height="200"><defs><style type="text/css">@font-face { font-family: "feedback-iconfont"; src: url("//at.alicdn.com/t/font_1031158_u69w8yhxdu.woff2?t=1630033759944") format("woff2"), url("//at.alicdn.com/t/font_1031158_u69w8yhxdu.woff?t=1630033759944") format("woff"), url("//at.alicdn.com/t/font_1031158_u69w8yhxdu.ttf?t=1630033759944") format("truetype"); }
</style></defs><path d="M297.6 387.9c-65.6 0-119-52-119-115.9s53.4-115.9 119-115.9 119 52 119 115.9-53.4 115.9-119 115.9z m0-191.8c-43.6 0-79 34-79 75.9 0 41.8 35.5 75.9 79 75.9s79-34 79-75.9c0-41.8-35.5-75.9-79-75.9z" fill="#e6e6e6" p-id="5459"></path><path d="M485.5 568.3h-40V489c0-53.7-43.7-97.4-97.4-97.4H246.9c-53.7 0-97.4 43.7-97.4 97.4v79.3h-40V489c0-75.7 61.6-137.4 137.4-137.4h101.3c75.7 0 137.4 61.6 137.4 137.4v79.3zM740.8 387.9c-65.6 0-119-52-119-115.9s53.4-115.9 119-115.9 119 52 119 115.9-53.4 115.9-119 115.9z m0-191.8c-43.6 0-79 34-79 75.9 0 41.8 35.5 75.9 79 75.9s79-34 79-75.9c0-41.8-35.5-75.9-79-75.9z" fill="#e6e6e6" p-id="5460"></path><path d="M928.8 568.3h-40V489c0-53.7-43.7-97.4-97.4-97.4H690.1c-53.7 0-97.4 43.7-97.4 97.4v79.3h-40V489c0-75.7 61.6-137.4 137.4-137.4h101.3c75.7 0 137.4 61.6 137.4 137.4v79.3z" fill="#e6e6e6" p-id="5461"></path><path d="M996.5 722.1H33.6c-11 0-20-9-20-20V584.5c0-11 9-20 20-20h962.9c11 0 20 9 20 20v117.7c0 11-9 19.9-20 19.9z m-942.9-40h922.9v-77.7H53.6v77.7z" fill="#e6e6e6" p-id="5462"></path><path d="M125.4 926.3c-11 0-20-9-20-20V720.1c0-11 9-20 20-20s20 9 20 20v186.2c0 11.1-8.9 20-20 20zM904.6 926.3c-11 0-20-9-20-20V702.1c0-11 9-20 20-20s20 9 20 20v204.2c0 11.1-9 20-20 20z" fill="#e6e6e6" p-id="5463"></path></svg>