<?xml version="1.0" standalone="no"?><!DOCTYPE svg PUBLIC "-//W3C//DTD SVG 1.1//EN" "http://www.w3.org/Graphics/SVG/1.1/DTD/svg11.dtd"><svg t="1658482826129" class="icon" viewBox="0 0 1024 1024" version="1.1" xmlns="http://www.w3.org/2000/svg" p-id="9085" xmlns:xlink="http://www.w3.org/1999/xlink" width="200" height="200"><defs><style type="text/css">@font-face { font-family: "feedback-iconfont"; src: url("//at.alicdn.com/t/font_1031158_u69w8yhxdu.woff2?t=1630033759944") format("woff2"), url("//at.alicdn.com/t/font_1031158_u69w8yhxdu.woff?t=1630033759944") format("woff"), url("//at.alicdn.com/t/font_1031158_u69w8yhxdu.ttf?t=1630033759944") format("truetype"); }
</style></defs><path d="M908.036096 188.635238c73.681101 88.004301 115.638477 201.591296 115.638477 324.388045 0 281.409229-229.230182 510.629786-510.651187 510.629786-283.467674 0-512.697958-229.220557-512.697958-510.629786 0-283.455795 229.230182-512.676454 512.697958-512.676454 125.871923 0 239.463731 45.025485 328.495104 119.726797 65.494323 9.209754 96.194867-9.209754 115.638477-92.097536l66.517709 22.512742C999.11424 132.353434 960.226918 176.355533 908.036096 188.635238L908.036096 188.635238zM221.368832 393.296486c-64.47104 0-117.685146 53.211955-117.685146 119.726797 0 64.468275 53.214106 119.726797 117.685146 119.726797 66.517709 0 119.731814-55.258522 119.731814-119.726797C341.100646 446.508442 287.886541 393.296486 221.368832 393.296486L221.368832 393.296486zM513.023386 103.700787c-66.517709 0-119.731814 53.211955-119.731814 117.68023 0 66.514944 53.214106 119.726797 119.731814 119.726797 64.47104 0 119.731814-53.211955 119.731814-119.726797C632.7552 156.912742 577.494323 103.700787 513.023386 103.700787L513.023386 103.700787zM444.458906 513.023283c0 37.862298 30.700442 67.538227 68.564378 67.538227s67.541094-29.67593 67.541094-67.538227-29.677158-68.56151-67.541094-68.56151S444.458906 475.160986 444.458906 513.023283L444.458906 513.023283zM513.023386 682.892186c-66.517709 0-119.731814 54.235238-119.731814 119.726797 0 66.514944 53.214106 119.726797 119.731814 119.726797 64.47104 0 119.731814-53.211955 119.731814-119.726797C632.7552 737.127322 577.494323 682.892186 513.023386 682.892186L513.023386 682.892186zM682.899354 513.023283c0 64.468275 54.237491 119.726797 119.731814 119.726797 66.517709 0 119.731814-55.258522 119.731814-119.726797 0-66.514944-53.214106-119.726797-119.731814-119.726797C737.136845 393.296486 682.899354 446.508442 682.899354 513.023283z" p-id="9086" fill="#e6e6e6"></path></svg>