<?xml version="1.0" standalone="no"?><!DOCTYPE svg PUBLIC "-//W3C//DTD SVG 1.1//EN" "http://www.w3.org/Graphics/SVG/1.1/DTD/svg11.dtd"><svg t="1687324179314" class="icon" viewBox="0 0 1024 1024" version="1.1" xmlns="http://www.w3.org/2000/svg" p-id="13725" xmlns:xlink="http://www.w3.org/1999/xlink" width="128" height="128"><path d="M1024 345.6c0-105.6-70.4-176-176-176H172.8C70.4 169.6 0 240 0 342.4v387.2c0 99.2 70.4 169.6 169.6 169.6h339.2c112 0 224-3.2 339.2 0 89.6 3.2 179.2-64 176-179.2V345.6zM172.8 243.2h678.4c16 0 32 0 51.2 12.8-48 44.8-96 92.8-147.2 137.6-54.4 51.2-105.6 99.2-160 150.4-57.6 54.4-112 54.4-169.6 0l-288-268.8c-3.2-9.6-9.6-12.8-19.2-19.2 19.2-12.8 38.4-12.8 54.4-12.8z m-96 67.2c54.4 51.2 105.6 99.2 156.8 147.2 22.4 22.4 48 44.8 70.4 64 9.6 9.6 12.8 16 0 25.6-73.6 70.4-147.2 137.6-227.2 211.2v-448z m777.6 515.2H172.8c-16 0-32 0-51.2-12.8 41.6-38.4 83.2-80 124.8-118.4 35.2-35.2 73.6-67.2 108.8-102.4 9.6-9.6 16-9.6 25.6 0 76.8 80 195.2 73.6 262.4 0 6.4-6.4 12.8-16 22.4-3.2 76.8 73.6 156.8 147.2 236.8 220.8-16 16-32 16-48 16z m96-67.2c-83.2-76.8-160-150.4-240-224 80-73.6 156.8-147.2 240-224v448z" fill="#666666" p-id="13726"></path></svg>