<?xml version="1.0" standalone="no"?><!DOCTYPE svg PUBLIC "-//W3C//DTD SVG 1.1//EN" "http://www.w3.org/Graphics/SVG/1.1/DTD/svg11.dtd"><svg t="1658382243076" class="icon" viewBox="0 0 1024 1024" version="1.1" xmlns="http://www.w3.org/2000/svg" p-id="18954" xmlns:xlink="http://www.w3.org/1999/xlink" width="128" height="128"><defs><style type="text/css">@font-face { font-family: "feedback-iconfont"; src: url("//at.alicdn.com/t/font_1031158_u69w8yhxdu.woff2?t=1630033759944") format("woff2"), url("//at.alicdn.com/t/font_1031158_u69w8yhxdu.woff?t=1630033759944") format("woff"), url("//at.alicdn.com/t/font_1031158_u69w8yhxdu.ttf?t=1630033759944") format("truetype"); }
</style></defs><path d="M569.6 902.4H448c-51.2 0-89.6-38.4-89.6-89.6 0-51.2 38.4-89.6 89.6-89.6h121.6c51.2 0 89.6 38.4 89.6 89.6 0 51.2-38.4 89.6-89.6 89.6z m0-294.4H448c-51.2 0-89.6-38.4-89.6-89.6 0-51.2 38.4-89.6 89.6-89.6h121.6c51.2 0 89.6 38.4 89.6 89.6 0 44.8-38.4 89.6-89.6 89.6z m0-300.8H448c-51.2 0-89.6-38.4-89.6-89.6S396.8 128 448 128h121.6c51.2 0 89.6 38.4 89.6 89.6s-38.4 89.6-89.6 89.6z m-326.4-57.6c-32 0-64 12.8-83.2 32-25.6 25.6-32 51.2-32 83.2s12.8 64 32 83.2c25.6 25.6 51.2 32 83.2 32h32c19.2 0 32 12.8 32 32s-12.8 32-32 32h-32C147.2 544 64 460.8 64 364.8c0-96 83.2-179.2 179.2-179.2V128l89.6 89.6-89.6 89.6v-57.6z m537.6 595.2h-32c-19.2 0-32-12.8-32-32s12.8-32 32-32h32c32 0 64-12.8 83.2-32 25.6-25.6 32-51.2 32-83.2s-12.8-64-32-83.2c-25.6-25.6-51.2-32-83.2-32v57.6l-89.6-89.6 89.6-89.6v57.6c96 0 179.2 83.2 179.2 179.2s-83.2 179.2-179.2 179.2z" fill="#ffffff" p-id="18955"></path></svg>