<?xml version="1.0" standalone="no"?><!DOCTYPE svg PUBLIC "-//W3C//DTD SVG 1.1//EN" "http://www.w3.org/Graphics/SVG/1.1/DTD/svg11.dtd"><svg t="1658382062255" class="icon" viewBox="0 0 1024 1024" version="1.1" xmlns="http://www.w3.org/2000/svg" p-id="15090" xmlns:xlink="http://www.w3.org/1999/xlink" width="128" height="128"><defs><style type="text/css">@font-face { font-family: "feedback-iconfont"; src: url("//at.alicdn.com/t/font_1031158_u69w8yhxdu.woff2?t=1630033759944") format("woff2"), url("//at.alicdn.com/t/font_1031158_u69w8yhxdu.woff?t=1630033759944") format("woff"), url("//at.alicdn.com/t/font_1031158_u69w8yhxdu.ttf?t=1630033759944") format("truetype"); }
</style></defs><path d="M754.56 628.736a150.336 150.336 0 0 1-86.912 50.56l0.128 0.128-13.952 13.952 13.952 42.496-28.16 149.248-28.16-149.248 13.952-42.496-13.952-13.952 0.128-0.128c-34.56-6.528-65.024-24.704-86.912-50.56a295.424 295.424 0 0 0-99.2 68.864 101.696 101.696 0 0 0-27.904 69.76v85.12c0 26.624 21.632 48.256 48.256 48.256h387.328c26.624 0 48.256-21.632 48.256-48.256v-85.248c0-25.984-10.112-50.944-27.904-69.76a295.3344 295.3344 0 0 0-98.944-68.736z" p-id="15091" fill="#ffffff"></path><path d="M639.488 646.016c62.976 0 114.048-51.072 114.048-114.048v-16.768c1.408-0.64 2.944-1.408 4.096-2.048 16.768-8.576 27.264-25.6 27.264-44.416v-38.528l66.944-27.264c10.752-4.352 10.752-19.712 0-24.064l-182.144-74.24a79.9616 79.9616 0 0 0-60.544 0l-182.144 74.24c-10.752 4.352-10.752 19.712 0 24.064l66.944 27.264v38.528c0 18.816 10.496 35.968 27.264 44.416 1.152 0.64 2.688 1.28 4.096 2.048v16.768c0.128 62.976 51.2 114.048 114.176 114.048z m-30.336-168.96c19.456 7.936 41.088 7.936 60.544 0l80.896-32.896v24.576c0 5.888-3.328 11.264-8.576 13.952-19.84 9.984-59.392 26.88-102.656 26.88s-82.816-16.896-102.656-26.88c-5.248-2.688-8.576-8.064-8.576-13.952V444.16l81.024 32.896z" p-id="15092" fill="#ffffff"></path><path d="M303.232 832.128h-85.376c-22.912 0-41.472-18.688-41.472-41.472V269.184a41.472 41.472 0 0 1 41.472-41.472h555.648c22.912 0 41.472 18.688 41.472 41.472a34.304 34.304 0 0 0 68.608 0c0-60.672-49.408-110.08-110.08-110.08H217.856c-60.672 0-110.08 49.408-110.08 110.08v521.472c0 60.672 49.408 110.08 110.08 110.08h85.376a34.304 34.304 0 0 0 0-68.608z" p-id="15093" fill="#ffffff"></path></svg>