<?xml version="1.0" standalone="no"?><!DOCTYPE svg PUBLIC "-//W3C//DTD SVG 1.1//EN" "http://www.w3.org/Graphics/SVG/1.1/DTD/svg11.dtd"><svg t="1658381958411" class="icon" viewBox="0 0 1024 1024" version="1.1" xmlns="http://www.w3.org/2000/svg" p-id="12932" xmlns:xlink="http://www.w3.org/1999/xlink" width="128" height="128"><defs><style type="text/css">@font-face { font-family: "feedback-iconfont"; src: url("//at.alicdn.com/t/font_1031158_u69w8yhxdu.woff2?t=1630033759944") format("woff2"), url("//at.alicdn.com/t/font_1031158_u69w8yhxdu.woff?t=1630033759944") format("woff"), url("//at.alicdn.com/t/font_1031158_u69w8yhxdu.ttf?t=1630033759944") format("truetype"); }
</style></defs><path d="M872.4 512.9c0 198.8-161.7 360.5-360.5 360.5S151.3 711.7 151.3 512.9H40.4c0 63.6 12.5 125.4 37.1 183.5 23.7 56.1 57.7 106.6 101 149.8 43.3 43.3 93.7 77.3 149.8 101 58.2 24.6 119.9 37.1 183.5 37.1s125.4-12.5 183.5-37.1c56.1-23.7 106.6-57.7 149.8-101 43.3-43.3 77.3-93.7 101-149.8 24.6-58.2 37.1-119.9 37.1-183.5H872.4z" p-id="12933" fill="#ffffff"></path><path d="M359.3 512.9H248.4c0 70.4 27.4 136.5 77.2 186.3 49.8 49.8 115.9 77.2 186.3 77.2s136.5-27.4 186.3-77.2c49.8-49.8 77.2-115.9 77.2-186.3h-111c0 40.7-15.9 79-44.7 107.9s-67.1 44.7-107.9 44.7c-40.7 0-79-15.9-107.9-44.7-28.7-28.8-44.6-67.1-44.6-107.9zM445.9 64.4H130.4v383h315.5v-383z m-128 255h-59.5v-127h59.5v127zM893.9 64.4H578.4v383h315.5v-383z m-128 255h-59.5v-127h59.5v127z" p-id="12934" fill="#ffffff"></path></svg>