<?xml version="1.0" standalone="no"?><!DOCTYPE svg PUBLIC "-//W3C//DTD SVG 1.1//EN" "http://www.w3.org/Graphics/SVG/1.1/DTD/svg11.dtd"><svg t="1687323828695" class="icon" viewBox="0 0 1024 1024" version="1.1" xmlns="http://www.w3.org/2000/svg" p-id="4232" xmlns:xlink="http://www.w3.org/1999/xlink" width="128" height="128"><path d="M959.2 677.9V215.6c0-20-16.3-36.3-36.3-36.3H436.2c-20 0-36.3 16.3-36.3 36.3v100.5h70v-66.8h419.3v394.9H469.9V474.1h-70v203.8c0 20 16.3 36.3 36.3 36.3h77.9L388.6 908.6c-10.5 16.2-5.8 37.9 10.4 48.4s37.9 5.8 48.4-10.4l150.1-232.4h34.8v213.4c0 19.3 15.7 35 35 35s35-15.7 35-35V714.2H737l150 232.4c10.5 16.2 32.2 20.9 48.4 10.4 16.2-10.5 20.9-32.2 10.4-48.4L820.3 714.2h102.6c20 0 36.3-16.3 36.3-36.3zM208.8 332.6c72.2 0 131-58.8 131-131s-58.8-131-131-131-131 58.8-131 131 58.7 131 131 131z m0-192c33.6 0 61 27.4 61 61s-27.4 61-61 61-61-27.4-61-61 27.3-61 61-61z" p-id="4233"></path><path d="M474.8 390.7c-0.1-19.3-15.8-34.9-35.1-34.9l-334.4 1.1c-20.3 0.1-36.8 16.6-36.8 36.9v362.4c0 20.4 16.5 36.9 36.9 36.9h68.3l-0.2 134.5c0 19.3 15.6 35 35 35 19.3 0 35-15.6 35-35l0.2-134.6h78c20.4 0 36.9-16.5 36.9-36.9v-330l81.3-0.3c19.4-0.1 35-15.8 34.9-35.1zM288.6 723.1H138.5V426.8l150.1-0.5v296.8zM592 504.7l35.2-31.9c0.9-0.9 2.4-0.9 3.3 0l38.9 35.2c14.6 13.2 36.6 13.2 51.2 0l112.1-101.5c14.3-13 15.4-35.1 2.5-49.4-13-14.3-35.1-15.4-49.4-2.5l-89.1 80.6c-0.9 0.9-2.4 0.9-3.3 0L654.5 400a38.049 38.049 0 0 0-51.2 0L545 452.9c-14.3 13-15.4 35.1-2.5 49.4 13 14.3 35.2 15.4 49.5 2.4z" p-id="4234"></path></svg>