<?xml version="1.0" standalone="no"?><!DOCTYPE svg PUBLIC "-//W3C//DTD SVG 1.1//EN" "http://www.w3.org/Graphics/SVG/1.1/DTD/svg11.dtd"><svg t="1658382156423" class="icon" viewBox="0 0 1024 1024" version="1.1" xmlns="http://www.w3.org/2000/svg" p-id="17106" xmlns:xlink="http://www.w3.org/1999/xlink" width="128" height="128"><defs><style type="text/css">@font-face { font-family: "feedback-iconfont"; src: url("//at.alicdn.com/t/font_1031158_u69w8yhxdu.woff2?t=1630033759944") format("woff2"), url("//at.alicdn.com/t/font_1031158_u69w8yhxdu.woff?t=1630033759944") format("woff"), url("//at.alicdn.com/t/font_1031158_u69w8yhxdu.ttf?t=1630033759944") format("truetype"); }
</style></defs><path d="M918.7 255.5h-329L485.1 116.1c-8.1-10.8-21.1-17.3-34.6-17.3H106.8c-23.9 0-43.3 19.4-43.3 43.3v739.5c0 23.9 19.4 43.3 43.3 43.3h811.9c23.9 0 43.3-19.4 43.3-43.3V298.8c-0.1-23.8-19.5-43.3-43.3-43.3z m-785.2-86.7h303.6l65.1 86.7H133.5v-86.7z m758.4 686H133.5V325.6h758.4v529.2z" p-id="17107" fill="#ffffff"></path><path d="M340.8 591.7l-26 40.4c-9.7 15.1-11.5 34-4.8 50.6 5 12.3 11.1 24.2 18.2 35.4 9.6 15.1 26 24.6 44 25.5l48 2.3 22 42.8c8.2 16 23.7 27 41.5 29.5 10 1.4 20.1 2.1 30.2 2.1 3.2 0 6.4-0.1 9.6-0.2 17.9-0.8 34.3-10.3 44.1-25.4l26-40.4 48 2.3c18 0.8 35.3-7.1 46.3-21.2 8.1-10.4 15.4-21.7 21.5-33.4 8.3-15.9 8.4-34.9 0.1-50.9l-22-42.7 26-40.4c9.7-15.1 11.5-34 4.8-50.6-5-12.3-11.1-24.2-18.2-35.4-9.6-15.1-26-24.6-44-25.5l-48-2.3-22-42.7c-8.2-16-23.7-27-41.5-29.5-13.1-1.8-26.5-2.4-39.7-1.9-17.9 0.8-34.3 10.3-44.1 25.4l-26 40.4-48-2.3c-18-0.9-35.3 7.1-46.3 21.2-8.1 10.4-15.4 21.7-21.5 33.4-8.3 15.9-8.4 34.9-0.1 50.9l21.9 42.6z m63.4 30.8c10.7-16.6 11.7-37.8 2.7-55.3l-22.3-43.3c2-3.5 4.2-6.8 6.5-10.1l48.6 2.3c19.7 1 38.5-8.8 49.2-25.3l26.3-40.9c4 0 8 0.2 12 0.6l22.3 43.3c9 17.5 26.9 29 46.5 29.9l48.7 2.3c2 3.5 3.8 7 5.5 10.7l-26.4 41c-10.7 16.6-11.7 37.8-2.7 55.3l22.3 43.3c-2 3.5-4.2 6.8-6.5 10.1l-48.6-2.3c-19.7-0.9-38.5 8.8-49.2 25.3l-26.3 40.9c-4 0-8-0.2-12-0.6l-22.3-43.3c-9-17.5-26.9-29-46.5-29.9l-48.7-2.3c-2-3.5-3.8-7-5.5-10.7l26.4-41z" p-id="17108" fill="#ffffff"></path><path d="M514 600m-54.4 0a54.4 54.4 0 1 0 108.8 0 54.4 54.4 0 1 0-108.8 0Z" p-id="17109" fill="#ffffff"></path></svg>