<?xml version="1.0" standalone="no"?><!DOCTYPE svg PUBLIC "-//W3C//DTD SVG 1.1//EN" "http://www.w3.org/Graphics/SVG/1.1/DTD/svg11.dtd"><svg t="1687324096289" class="icon" viewBox="0 0 1024 1024" version="1.1" xmlns="http://www.w3.org/2000/svg" p-id="10989" xmlns:xlink="http://www.w3.org/1999/xlink" width="128" height="128"><path d="M957.44 885.76a181.632 181.632 0 0 1-155.04-98.816c-29.248-65.216-5.12-146.624 69.728-235.36 110.464-131.008 165.664-272.576 144.032-369.472a112.768 112.768 0 0 0-61.792-82.56 133.056 133.056 0 0 0-134.4 20.032l-43.904-43.904a56.768 56.768 0 0 0-42.496-16.384 60.864 60.864 0 0 0-40.416 17.952L76.8 693.632a61.76 61.76 0 0 0-15.136 24.608L6.112 890.016a57.28 57.28 0 0 0 12.704 57.536 56.32 56.32 0 0 0 40.8 17.184 59.232 59.232 0 0 0 15.968-2.208l178.304-49.92a61.568 61.568 0 0 0 26.976-15.776L896.8 280.896a58.72 58.72 0 0 0 1.6-82.912l-32.192-32.192a66.368 66.368 0 0 1 61.44-8.064 50.976 50.976 0 0 1 26.048 38.336c14.016 62.784-20.896 184.32-130.528 314.24-115.968 137.536-107.04 240.608-79.168 302.816a245.44 245.44 0 0 0 211.68 136.576h0.896a32 32 0 0 0 0.864-63.968z m-886.464 11.584l42.56-132.064 93.888 93.888z m192-73.12L149.824 711.04 630.976 229.952l113.152 113.12z m526.4-526.4l-113.152-113.12 59.2-59.2 113.12 113.12z" fill="#575869" p-id="10990"></path></svg>