<?xml version="1.0" standalone="no"?><!DOCTYPE svg PUBLIC "-//W3C//DTD SVG 1.1//EN" "http://www.w3.org/Graphics/SVG/1.1/DTD/svg11.dtd"><svg t="1687324430759" class="icon" viewBox="0 0 1024 1024" version="1.1" xmlns="http://www.w3.org/2000/svg" p-id="20315" xmlns:xlink="http://www.w3.org/1999/xlink" width="128" height="128"><path d="M959.5 776.4c-2.1-55.9-27.1-329.9-317.8-342v-88.1c0.4-5 0.2-16.3-7.6-25.2-9-10.2-23.4-12.6-40.1-5.4l-3.9 1.7-163.2 177.5c-3.3 3.9-17.2 21.2-17.2 41.5 0 21.2 17.2 39.3 20.7 42.7l163.5 188.1c4.2 4.5 14.2 13.7 27.2 13.7 10.1 0 19.1-5.7 24-15.1 3.4-6.5 5-14.7 5-25.7V633.2c47.1-1.2 184.7 8.5 264.9 154.7 5.2 9.5 13.4 15 22.4 15h8.5l6.9-6.6c7.2-7.3 6.8-16.8 6.7-19.9zM656.9 592.9c-18 0-29.2 1.6-29.7 1.6l-17.3 2.5v127.4L459.7 551.6c-5.3-5.4-9.7-12.6-9.8-15.3 0-4.1 4.1-11.4 7.2-15l144.5-157.1-0.1 109.8h20.1c207.1 0 270.6 140.9 289.9 236.9-87-105.2-203.6-118-254.6-118zM523.4 326.8c0-17.5-14.2-31.8-31.8-31.8H267.9c-17.6 0-31.8 14.2-31.8 31.8s14.2 31.8 31.8 31.8h223.8c17.5-0.1 31.7-14.3 31.7-31.8zM352.2 575.4h-84.3c-17.6 0-31.8 14.2-31.8 31.8s14.2 31.8 31.8 31.8h84.3c17.5 0 31.8-14.2 31.8-31.8-0.1-17.5-14.3-31.7-31.8-31.8zM409.7 467c0-17.5-14.2-31.8-31.8-31.8h-110c-17.6 0-31.8 14.2-31.8 31.8s14.2 31.8 31.8 31.8H378c17.5 0 31.7-14.3 31.7-31.8z m0 0" p-id="20316"></path><path d="M805.6 747.7c-0.4-0.1-0.9-0.2-1.3-0.3l-4.7 53.6c0 31-29.8 56.2-60.9 56.2H181.3c-31 0-56.2-25.2-56.2-56.2V220.3c0-1 0-1.9 0.1-2.9 1.5-29.7 26.1-53.4 56.2-53.4H762c30.1 0 54.6 23.7 56.2 53.4 0 1 0.1 1.9 0.1 2.9v18.2l4.7 159.3c26.4 17.6 28.2 35.3 56.4 62.1V215.5c0-13.2-2.3-26.3-6.8-38.7C856.8 133.7 815.5 103 767 103H176.5c-52.4 0-96.4 35.8-108.9 84.3-2.4 9.2-3.6 18.6-3.5 28.1v590.3c0 62.1 50.3 112.5 112.4 112.5h168.7v1.1h84.3v-1.1h84.3v1.1h84.3v-1.1h168.7c57.1 0 104.2-42.5 111.5-97.7 0 0-0.7-2.3-2.2-6.1-22.8-37.7-45.3-45.6-70.5-66.7z m0 0" p-id="20317"></path></svg>