<?xml version="1.0" standalone="no"?><!DOCTYPE svg PUBLIC "-//W3C//DTD SVG 1.1//EN" "http://www.w3.org/Graphics/SVG/1.1/DTD/svg11.dtd"><svg t="1687324473772" class="icon" viewBox="0 0 1024 1024" version="1.1" xmlns="http://www.w3.org/2000/svg" p-id="24647" xmlns:xlink="http://www.w3.org/1999/xlink" width="128" height="128"><path d="M622.61 379.37h25.74v50.26h-25.74zM672.93 379.37h25.74v50.26h-25.74zM541.28 334.44l-62.88 56c-8.68 7.74-8.68 20.28 0 28l62.88 56c8.63 7.69 22.62 7.69 31.3 0.08v-44.89h25.74v-50.26h-25.74v-45a24.21 24.21 0 0 0-31.3 0.07z" p-id="24648"></path><path d="M896.08 712.32H390.35c-12.56 0-45.91 0-53.21-59-2.17-17.51-20.43-152.42-38.08-282.88-13.79-101.91-26.82-198.16-29.56-219.19-4.54-34.8-19-55-30.28-65.89-14.21-13.64-32.82-21.46-51-21.46h-86a28.48 28.48 0 0 0 0 57h86c6.89 0 20.95 7.89 24.84 37.75 2.76 21.16 15.8 117.48 29.6 219.46 16.81 124.24 35.87 265.05 38 282.24 3.78 30.55 13.65 55.42 29.33 73.91 19.42 22.9 47.22 35 80.41 35h505.68a28.48 28.48 0 0 0 0-57z" p-id="24649"></path><path d="M929.49 183.66c-14.24-16.4-34.11-25.07-57.46-25.07H317.75a28.48 28.48 0 0 0 0 57H872c8.71 0 12.41 3.11 14.44 5.45 6.09 7 8.46 21.34 6.19 37.37C887 298.14 858.42 475 853.26 506.27c-5.26 31.86-24.35 49-58.34 52.29-58.11 5.68-387.34 33.15-390.66 33.43a28.48 28.48 0 0 0 2.34 56.86c0.79 0 1.6 0 2.4-0.1 3.32-0.28 333-27.79 391.46-33.5 59.77-5.84 99.5-42.17 109-99.69 4.54-27.56 33.63-207.1 39.6-249.18 4.73-33.38-2.22-62.73-19.57-82.72zM410.1 779.7a89.93 89.93 0 1 0 89.9 89.93 90 90 0 0 0-89.9-89.93z m0 122.9a33 33 0 1 1 33-33 33 33 0 0 1-33 33zM825.89 779.7a89.93 89.93 0 1 0 89.93 89.93 90 90 0 0 0-89.93-89.93z m0 122.9a33 33 0 1 1 33-33 33 33 0 0 1-33 33z" p-id="24650"></path></svg>