<?xml version="1.0" standalone="no"?><!DOCTYPE svg PUBLIC "-//W3C//DTD SVG 1.1//EN" "http://www.w3.org/Graphics/SVG/1.1/DTD/svg11.dtd"><svg t="1687324427865" class="icon" viewBox="0 0 1024 1024" version="1.1" xmlns="http://www.w3.org/2000/svg" p-id="20154" xmlns:xlink="http://www.w3.org/1999/xlink" width="128" height="128"><path d="M683.7 280.06h-349a28.7 28.7 0 0 0-28.7 28.7 28.7 28.7 0 0 0 28.7 28.7h349a28.7 28.7 0 0 0 28.7-28.7 28.7 28.7 0 0 0-28.7-28.7z" p-id="20155"></path><path d="M306 421.18l406.39 0 0 57.39-406.39 0 0-57.39Z" p-id="20156"></path><path d="M306 562.31l273.94 0 0 57.39-273.94 0 0-57.39Z" p-id="20157"></path><path d="M306 703.44l167.98 0 0 57.39-167.98 0 0-57.39Z" p-id="20158"></path><path d="M698 624.55a167.5 167.5 0 1 0 167.5 167.5A167.5 167.5 0 0 0 698 624.55zM698 919a126.9 126.9 0 1 1 126.9-126.9A126.9 126.9 0 0 1 698 919z" p-id="20159"></path><path d="M798 63.82H226.2a67.55 67.55 0 0 0-67.55 67.55V892a67.55 67.55 0 0 0 67.55 67.55h268.61a28.7 28.7 0 0 0 0-57.39H242.54A26.49 26.49 0 0 1 216 875.67v-728a26.49 26.49 0 0 1 26.49-26.49h539.17a26.49 26.49 0 0 1 26.49 26.49v435.96a28.7 28.7 0 1 0 57.39 0V131.37A67.55 67.55 0 0 0 798 63.82z" p-id="20160"></path><path d="M762.32 864.2a16.93 16.93 0 0 1-10.32-3.87c-24.7-19.44-43-44.65-54.7-75.19a178.63 178.63 0 0 1-52.45 74.38l-0.42 0.33c-6.34 4.74-13.87 4.6-19.66-0.37l-0.45-0.39-0.39-0.44c-3.36-3.78-4.93-7.74-4.66-11.77a13.41 13.41 0 0 1 4.94-9.42l0.48-0.38c24.85-18.47 42.76-48.25 53.28-88.59H654.6c-10.92 0-15.55-6.73-16.24-13l-0.11-1 0.11-1c0.32-2.91 2.37-12.48 15.5-13.58h36.74a25.74 25.74 0 0 1 4.6 0.21l3.45 0.76c7.63 2.35 13 8.79 15.12 18.56 9.83 42.92 29 75.81 57.11 97.75l0.43 0.33 0.38 0.38c6.17 6.17 6.92 14.11 2 20.72l-0.38 0.51-0.45 0.45a14.73 14.73 0 0 1-10.54 4.62z" p-id="20161"></path></svg>