<?xml version="1.0" standalone="no"?><!DOCTYPE svg PUBLIC "-//W3C//DTD SVG 1.1//EN" "http://www.w3.org/Graphics/SVG/1.1/DTD/svg11.dtd"><svg t="1687323919381" class="icon" viewBox="0 0 1024 1024" version="1.1" xmlns="http://www.w3.org/2000/svg" p-id="7427" xmlns:xlink="http://www.w3.org/1999/xlink" width="128" height="128"><path d="M329.5 454.6c0 12.3 10 22.3 22.3 22.3h134.9v76.4H357.8c-12.3 0-22.3 10-22.3 22.3s10 22.3 22.3 22.3h128.9V757c0 12.3 10 22.3 22.3 22.3s22.3-10 22.3-22.3V597.7h141c12.3 0 22.3-10 22.3-22.3s-10-22.3-22.3-22.3h-141v-76.4h134.9c12.3 0 22.3-10 22.3-22.3s-10-22.3-22.3-22.3H555.7L675.9 284c7.7-9.5 6.3-23.6-3.3-31.3-9.5-7.7-23.6-6.3-31.3 3.3L508.9 419.3 373.6 253.1c-7.8-9.5-21.8-11-31.3-3.2s-11 21.8-3.2 31.3l123.1 151.1H351.8c-12.3 0-22.3 10-22.3 22.3z" p-id="7428"></path><path d="M512 0C229.7 0 0 229.7 0 512c0 9 5.4 17.1 13.7 20.6 8.3 3.4 17.9 1.5 24.3-4.8l120.2-120.2c8.7-8.7 8.7-22.8 0-31.5s-22.8-8.7-31.5 0L48 454.8C76.3 223.9 273.6 44.5 512 44.5c257.8 0 467.5 209.7 467.5 467.5S769.8 979.5 512 979.5c-140.3 0-272-62.2-361.2-170.8-7.8-9.5-21.8-10.9-31.3-3.1-9.5 7.8-10.9 21.8-3.1 31.3 97.7 118.8 241.9 187 395.6 187 282.3 0 512-229.7 512-512S794.3 0 512 0z" p-id="7429"></path></svg>