<?xml version="1.0" standalone="no"?><!DOCTYPE svg PUBLIC "-//W3C//DTD SVG 1.1//EN" "http://www.w3.org/Graphics/SVG/1.1/DTD/svg11.dtd"><svg t="1687323883453" class="icon" viewBox="0 0 1024 1024" version="1.1" xmlns="http://www.w3.org/2000/svg" p-id="6056" xmlns:xlink="http://www.w3.org/1999/xlink" width="128" height="128"><path d="M747.008 212.48H278.528c-14.336 0-25.6-11.264-25.6-25.6V46.08c0-14.336 11.264-25.6 25.6-25.6h468.48c14.336 0 25.6 11.264 25.6 25.6v140.8c0 14.336-11.264 25.6-25.6 25.6z m-442.88-51.2h417.28V71.68H304.128v89.6z" p-id="6057"></path><path d="M946.176 1008.64H79.36c-14.336 0-25.6-11.264-25.6-25.6V116.224c0-14.336 11.264-25.6 25.6-25.6h199.168c14.336 0 25.6 11.264 25.6 25.6s-11.264 25.6-25.6 25.6H104.96V957.44h815.616V141.824h-173.568c-14.336 0-25.6-11.264-25.6-25.6s11.264-25.6 25.6-25.6h199.168c14.336 0 25.6 11.264 25.6 25.6V983.04c0 14.336-11.264 25.6-25.6 25.6z" p-id="6058"></path><path d="M459.776 714.24c17.92 2.048 55.808 3.072 114.176 3.072 44.032 0 99.328-0.512 165.888-1.536-9.216 23.04-16.384 42.496-22.016 58.368l-159.232-1.536-95.744-1.536c-13.824-0.512-29.184-3.584-46.08-9.728s-32.768-17.408-46.592-32.768l-48.64 55.296-25.6-68.096c12.8-11.776 27.648-25.088 44.544-38.912v-120.32h-41.984V496.128h97.792v185.344c12.288 15.872 30.208 26.112 53.76 30.72l-23.04-39.424c8.192-9.728 12.8-23.552 12.8-41.472V357.376H691.2v194.048l35.328 40.96c-22.528 14.336-45.056 27.648-66.56 39.936 20.48 13.824 39.936 27.648 57.344 40.448l-39.936 40.96-103.936-76.8c-0.512 18.944-1.024 33.28-1.024 43.52-55.808 13.312-93.696 24.576-112.64 33.792zM353.792 339.456c25.6 30.72 46.08 58.368 61.952 81.92l-52.736 34.816c-19.968-31.744-38.912-59.904-57.344-84.992l48.128-31.744z m280.064 70.656H496.64v29.696h137.728v-29.696z m0 107.008v-29.696H496.64v29.696h137.216z m-71.168 111.616l-34.816-24.576 34.304-34.304H496.64v76.288c19.968-5.12 41.984-11.264 66.048-17.408z m100.864-58.88h-97.792l50.688 33.28c16.384-10.752 31.744-22.016 47.104-33.28z" p-id="6059"></path></svg>