<?xml version="1.0" standalone="no"?><!DOCTYPE svg PUBLIC "-//W3C//DTD SVG 1.1//EN" "http://www.w3.org/Graphics/SVG/1.1/DTD/svg11.dtd"><svg t="1687323870536" class="icon" viewBox="0 0 1024 1024" version="1.1" xmlns="http://www.w3.org/2000/svg" p-id="5588" xmlns:xlink="http://www.w3.org/1999/xlink" width="128" height="128"><path d="M283.64 706.2a17 17 0 0 0-3.61 9.88q0 7.7 6.74 12.29a48.65 48.65 0 0 0 11.09 6q6.74 0 17.83-5.78a163.08 163.08 0 0 0 25.06-16.87A134 134 0 0 0 376.89 666q45.29 65.54 167.22 65.54h181.67q17.83 0 17.83-18.31t-17.83-18.31H534.47q-60.72 0-98.31-21.45t-45.3-58.55V464.53a141.39 141.39 0 0 0-1.2-20.73q-1.21-7.7-4.58-12.05a15.42 15.42 0 0 0-9.64-5.54 90.5 90.5 0 0 0-16.39-1.2h-61.2q-10.12 0-13.73 5.3t-3.62 15.42q0 16.39 17.35 16.38h52c2.89 0 4.34 2.1 4.34 6.27V619.7q0 44.81-57.83 76.62h0.48q-9.6 4.81-13.2 9.88zM355.68 311.28q-9.65-7.7-16.39-12.53-12.54-9.64-20.72-9.64-9.65 0-13 6.5a76 76 0 0 0-5.3 12.77c0 2.89 1.12 6 3.37 9.16a30.49 30.49 0 0 0 10.12 8.67 101.31 101.31 0 0 1 12.24 8.2q7 5.31 16.63 13.49 9.63 7.23 17.34 14.22t14 13.25q13.48 13.49 21.2 13.49 7.23 0 13.25-6.27t6-13.49q0-6.74-5.78-13.49-4.83-5.3-31.33-26.51h0.48q-11.01-8.92-22.11-17.82z" p-id="5589"></path><path d="M696.63 496.09q8.91-9.4 8.91-32.53V340.19q0-22.65-8.67-31.57T666 299.71H473.75q-22.17 0-30.36 8.44t-8.19 32v293.53q0 19.28 5.3 28.43 7.23 12 21.68 12 12 0 44.34-10.6 14.23-4.89 28.43-9.88 13-4.58 23.62-9.4a160.46 160.46 0 0 0 18.07-9.39 83.77 83.77 0 0 0 10.12-7.23q3.62-3.13 4.58-5.54a14.2 14.2 0 0 0 1-5.3q0-4.33-3.85-10.6h0.48q-3.38-6.25-12-6.5t-25.06 7.95a134.16 134.16 0 0 1-19 8.44Q519.63 621 506.52 626q-11.07 3.56-22.17 7c-6.75 2.1-10.77 3.13-12 3.13q-1 0-1-6.26V505.49h27.47q39 34.7 72.29 65.06T630.37 625q14 13.07 27.71 26.51T685.79 678h-0.48q6.25 6.26 12.77 6.27t12.77-5.3q6.75-5.78 6.75-13.49a19.16 19.16 0 0 0-2.17-8 32.42 32.42 0 0 0-6.51-8.91q-2.42-2.41-14.94-13.73t-34.21-31.04q-3.56-3.06-7-6.27-3.8-3.55-7.46-7.23 13.48-8.2 24.33-15.9t19.51-14.94q24.58-20.72 24.58-33.25 0-2.4-2.41-7.23a19.13 19.13 0 0 0-7-7.71q-4.59-2.89-11.33-1.68t-15.42 9.88A323 323 0 0 1 649.89 544a335 335 0 0 1-30.6 21.69q-16.21-14.69-32.77-29.12-16.39-14.21-35.18-31.08H666q21.71 0 30.63-9.4z m-225.29-152a14.84 14.84 0 0 1 1-6.27c0.64-1.28 2.25-1.93 4.82-1.93h186q6.74 0 6.74 8.2v41H471.34z m0 125.29v-49.19h198.54v40q0 9.16-6.74 9.16z" p-id="5590"></path><path d="M924.42 337.44a447.89 447.89 0 1 0-807.2 386.21 28.72 28.72 0 0 0 50.57-27.21 391 391 0 0 1-46.36-184.68c0-215.25 175.12-390.38 390.38-390.38S902.19 296.5 902.19 511.75 727.07 902.13 511.82 902.13a388.12 388.12 0 0 1-221.29-68.73 28.72 28.72 0 0 0-32.6 47.28 448 448 0 0 0 666.49-543.24z" p-id="5591"></path></svg>