<?xml version="1.0" standalone="no"?><!DOCTYPE svg PUBLIC "-//W3C//DTD SVG 1.1//EN" "http://www.w3.org/Graphics/SVG/1.1/DTD/svg11.dtd"><svg t="1658482808653" class="icon" viewBox="0 0 1024 1024" version="1.1" xmlns="http://www.w3.org/2000/svg" p-id="7936" xmlns:xlink="http://www.w3.org/1999/xlink" width="200" height="200"><defs><style type="text/css">@font-face { font-family: "feedback-iconfont"; src: url("//at.alicdn.com/t/font_1031158_u69w8yhxdu.woff2?t=1630033759944") format("woff2"), url("//at.alicdn.com/t/font_1031158_u69w8yhxdu.woff?t=1630033759944") format("woff"), url("//at.alicdn.com/t/font_1031158_u69w8yhxdu.ttf?t=1630033759944") format("truetype"); }
</style></defs><path d="M935.7 486.1L789.9 271c-8-11.7-21.2-18.7-35.3-18.7h-74.5l3 30.1h71.5c4.1 0 8 2 10.4 5.5l134.7 198.7h-777l134.7-198.8c2.3-3.4 6.2-5.5 10.4-5.5v0.1H349v-30.1h-81.2c-14.2 0-27.4 7-35.3 18.7L86.7 486.2c-4.8 7.1-7.3 15.3-7.3 23.9v319.8c0 23.5 19.1 42.6 42.6 42.6h778.4c23.5 0 42.6-19.1 42.6-42.7V510c0-8.5-2.5-16.8-7.3-23.9z m-35.3 356.4H122c-6.9 0-12.6-5.6-12.6-12.6V516.6H913v313.3c0 6.9-5.6 12.6-12.6 12.6z" fill="#e6e6e6" p-id="7937"></path><path d="M717 363.3h-14.3l0.4 33.6H321.8l0.1-33.6h-14c-8.3 0-15.1 6.8-15.1 15.1v11.5c0 8.3 6.8 15.1 15.1 15.1H717c8.3 0 15.1-6.8 15.1-15.1v-11.5c0-8.3-6.8-15.1-15.1-15.1z" fill="#e6e6e6" p-id="7938"></path><path d="M717 355.3h-14.4l0.2 15.9H717c3.9 0 7.1 3.2 7.1 7.1v11.5c0 3.9-3.2 7.1-7.1 7.1H307.9c-3.9 0-7.1-3.2-7.1-7.1v-11.5c0-3.9 3.2-7.1 7.1-7.1h14l0.1-15.9h-14.1c-12.7 0-23.1 10.3-23.1 23.1v11.5c0 12.7 10.3 23.1 23.1 23.1H717c12.7 0 23.1-10.3 23.1-23.1v-11.5c0-12.7-10.3-23.1-23.1-23.1z" fill="#e6e6e6" p-id="7939"></path><path d="M351.5 405.1V136.5c7.2-5.3 21.9-14.8 41.6-20.2 36.9-10.1 73.9-1.7 110 24.8 3.8 3.2 23.1 18.6 54 26.6 26.8 6.9 67.4 9.3 116.3-13.4v251.6l30 0.1V102.7l-22.7 13.7c-39.7 23.9-78.3 31.4-114.7 22.5-27.3-6.7-43.4-20.7-43.5-20.8l-0.5-0.5-0.6-0.4c-55.4-41-105.5-38.7-137.7-29.5-34.8 9.9-56.5 29.7-57.4 30.5l-4.8 4.5V405l30 0.1z" fill="#e6e6e6" p-id="7940"></path></svg>