<?xml version="1.0" standalone="no"?><!DOCTYPE svg PUBLIC "-//W3C//DTD SVG 1.1//EN" "http://www.w3.org/Graphics/SVG/1.1/DTD/svg11.dtd"><svg t="1658392862387" class="icon" viewBox="0 0 1024 1024" version="1.1" xmlns="http://www.w3.org/2000/svg" p-id="21795" xmlns:xlink="http://www.w3.org/1999/xlink" width="128" height="128"><defs><style type="text/css">@font-face { font-family: "feedback-iconfont"; src: url("//at.alicdn.com/t/font_1031158_u69w8yhxdu.woff2?t=1630033759944") format("woff2"), url("//at.alicdn.com/t/font_1031158_u69w8yhxdu.woff?t=1630033759944") format("woff"), url("//at.alicdn.com/t/font_1031158_u69w8yhxdu.ttf?t=1630033759944") format("truetype"); }
</style></defs><path d="M936.712 848.776l-34.288-34.864c0.52-5.128 0.76-10.44 0.76-15.8 0-5.368-0.232-10.552-0.76-15.8l34.224-34.864a21.728 21.728 0 0 0 7.984-29.624l-32.536-56.384a21.744 21.744 0 0 0-29.624-7.992l-47.344 12.192a163.84 163.84 0 0 0-27.344-15.808l-13.064-46.992a21.72 21.72 0 0 0-21.688-21.688H707.84a21.72 21.72 0 0 0-21.688 21.688l-13.064 47.112a163.424 163.424 0 0 0-27.344 15.8L598.4 653.568a21.68 21.68 0 0 0-29.624 7.992l-32.416 56.384a21.68 21.68 0 0 0 7.992 29.624l34.224 34.864a157.288 157.288 0 0 0-0.76 15.8c0 5.304 0.232 10.552 0.76 15.8l-34.224 34.864a21.744 21.744 0 0 0-7.992 29.624l32.536 56.384a21.736 21.736 0 0 0 29.624 7.992l47.344-12.184a163.8 163.8 0 0 0 27.344 15.8l13.064 47.112a21.72 21.72 0 0 0 21.688 21.688h65.128a21.72 21.72 0 0 0 21.688-21.688l13.056-47.112a162.88 162.88 0 0 0 27.344-15.8l47.288 12.184a21.68 21.68 0 0 0 29.624-7.992l32.536-56.384a21.816 21.816 0 0 0-7.912-29.744z m-196.2 25.304c-41.92 0-75.976-34.056-75.976-75.976s34.056-75.976 75.976-75.976 75.976 34.048 75.976 75.976c-0.12 41.984-34.056 75.976-75.976 75.976z m0 0" p-id="21796" fill="#ffffff"></path><path d="M209.44 926.52a43.704 43.704 0 0 1-43.656-43.656V270.288h611.32V552h89.816V141.136c0-73.592-59.88-133.472-133.472-133.472H209.44c-73.6 0-133.472 59.88-133.472 133.472v741.728c0 73.592 59.872 133.472 133.472 133.472h302v-89.816H209.44z" p-id="21797" fill="#ffffff"></path><path d="M681.032 387.752H260.352a44.912 44.912 0 0 0 0 89.824h420.68a44.92 44.92 0 0 0 0-89.824zM449.984 559.544H259.44c-24.2 0-44 19.8-44 44s19.8 44 44 44h190.544c24.2 0 44-19.8 44-44s-19.8-44-44-44zM449.984 727.544H259.44c-24.2 0-44 19.8-44 44s19.8 44 44 44h190.544c24.2 0 44-19.8 44-44s-19.8-44-44-44z" p-id="21798" fill="#ffffff"></path></svg>