<?xml version="1.0" standalone="no"?><!DOCTYPE svg PUBLIC "-//W3C//DTD SVG 1.1//EN" "http://www.w3.org/Graphics/SVG/1.1/DTD/svg11.dtd"><svg t="1687324048512" class="icon" viewBox="0 0 1024 1024" version="1.1" xmlns="http://www.w3.org/2000/svg" p-id="10127" xmlns:xlink="http://www.w3.org/1999/xlink" width="128" height="128"><path d="M872.803 755.994h0.061v-0.37zM511.74 95.665c-233.682 0-416.779 186.423-416.779 424.377 0 14.693 2.78 58.272 7.894 83.403h-0.088c0.118 0.533 0.28 0.976 0.4 1.478a96.03 96.03 0 0 0 1.995 7.717 696.905 696.905 0 0 0 5.543 20.34l1.242 4.672c0.149 0.975 0.695 1.803 0.961 2.78 26.83 87.363 59.707 119.944 59.707 119.944l0.06 0.03c0.088 1.004 0.118 2.069 0.31 2.986 1.686 19.956 6.224 72.937-16.23 119.384-1.819 4.346-2.72 8.959-2.69 13.216-1.184 7.064 0.443 14.19 4.655 20.103 4.51 6.297 11.295 10.495 19.011 11.796 1.093 0.207 2.217 0.296 3.15 0.355 0.812 0.06 1.61 0.09 2.394 0.09 3.119 0 6.15-0.564 8.44-1.45 26.832-5.617 85.962-31.399 118.926-54.282 61.408 33.675 130.884 51.533 201.102 51.533 230.105 0 417.312-185.846 417.312-414.238-0.002-228.418-187.209-414.234-417.314-414.234m0 773.896c-68.502 0-137.39-20.223-195.632-56.914-10.998-4.375-26.018-2.247-35.892 6.061-18.42 17.149-38.508 30.807-59.796 40.771 4.508-35.952 8.929-58.835 7.11-78.14 0.547-3.075 0.488-24.628-8.323-41.746-38.759-52.242-52.743-99.28-57.4-120.183l-0.311-1.684c-1.079-4.819-2.513-13.363-3.991-23.563-3.667-24.922-7.628-59.691-7.628-74.12 0-203.985 159.784-369.918 356.274-369.918l5.528 0.06c203.23 3.09 362.469 161.1 362.469 359.717 0 198.292-162.547 359.659-362.408 359.659" fill="" p-id="10128"></path><path d="M321.549 433.933c-20.873 0-35.523 6.415-43.846 19.321-2.513-11.146-9.637-17.177-21.287-18.049-15.89 1.759-23.83 10.747-23.83 27.066v126.243c0.813 16.32 8.782 24.45 23.83 24.45 14.162 0 21.702-8.13 22.558-24.45v-82.472c0.783-20.577 10.82-31.754 30.038-33.454 18.36 1.7 28.383 12.877 30.097 33.454v82.472c0.799 16.32 8.338 24.45 22.53 24.45s22.115-8.13 23.799-24.45v-91.46c-2.511-39.484-23.799-60.548-63.89-63.121M567.145 520.22c-6.711-52.346-34.236-81.142-82.694-86.287-50.97 5.144-78.554 35.67-82.722 91.43 2.54 57.593 31.339 87.188 86.478 88.872 44.258-2.541 69.329-14.989 75.184-37.31-1.716-12.034-7.953-18.893-18.803-20.636-4.2 0-10.437 2.6-18.775 7.745-13.393 7.746-24.627 11.589-33.852 11.589-25.07-0.857-39.678-12.447-43.874-34.799h99.042c13.306 0.889 20.016-6 20.016-20.605m-120.3-10.303c3.34-23.15 15.876-35.627 37.606-37.327 20.046 0.828 32.138 13.32 36.336 37.327h-73.942zM793.939 435.22c-11.678 0.871-18.803 7.287-21.316 19.306l-27.526 90.202-27.583-88.901c-4.228-13.704-11.737-20.608-22.559-20.608-12.535 0-20.459 6.904-23.828 20.608l-27.555 88.901-26.314-90.202c-3.341-12.019-10.85-18.435-22.558-19.307-14.191 0.872-21.729 7.288-22.558 19.307-0.828 3.459-0.828 7.332 0 11.603 0.83 3.445 2.484 7.288 4.997 11.59l38.848 113.367c5.026 14.605 14.22 21.908 27.585 21.908 13.363 0 22.115-6.889 26.312-20.637l23.8-75.981h1.271l23.831 75.981c3.28 13.748 12.062 20.637 26.311 20.637 12.478 0 21.703-7.303 27.526-21.908l40.119-114.668c2.513-6.844 3.756-12.86 3.756-18.02-0.858-14.59-8.337-22.307-22.56-23.179" fill="" p-id="10129"></path></svg>