<?xml version="1.0" standalone="no"?><!DOCTYPE svg PUBLIC "-//W3C//DTD SVG 1.1//EN" "http://www.w3.org/Graphics/SVG/1.1/DTD/svg11.dtd"><svg t="1687324890307" class="icon" viewBox="0 0 1024 1024" version="1.1" xmlns="http://www.w3.org/2000/svg" p-id="32910" xmlns:xlink="http://www.w3.org/1999/xlink" width="128" height="128"><path d="M102.4 775.1936v74.752a38.4 38.4 0 0 1-76.8 0V552.0896c0-0.896 0.0512-1.792 0.128-2.7136-2.048-35.0464 21.7856-36.9408 49.408-28.7488 27.6736 8.2432 44.3904 27.7248 56.1664 46.6688 18.6624 35.9424 39.04 93.7472 39.04 93.7472 45.696 105.0112 138.3168 187.8016 258.1248 215.5264 200.8064 46.5408 406.144-79.104 452.096-280.5248 0.9216-4.096 0.896-3.4816 2.5344-12.3648 1.6384-8.9088 4.3008-22.4 22.016-16.384 17.6384 6.0928 60.7232 18.432 74.1888 22.016 13.44 3.5072 11.9552 8.6528 10.24 20.9408-0.4608 3.7376-1.28 7.168-2.0736 10.7008-60.1088 261.888-321.7664 425.344-584.3968 364.9024A486.8608 486.8608 0 0 1 102.4 775.1936zM921.6 248.2688a486.7072 486.7072 0 0 0-300.8768-211.0464C363.9552-21.8368 96.4352 150.7584 44.2112 406.8608c-4.608 22.5536-0.512 20.736 14.72 27.7248 13.3632 6.144 50.2272 20.48 61.4912 20.9664 16.64 0.64 19.4048-19.9168 19.84-21.632C186.1376 232.4992 393.856 100.5312 594.6368 147.0464c125.8496 29.184 221.6704 119.04 264.6272 231.6544 29.696 55.8848 26.9568 145.8688 111.2832 132.992 15.36-0.128 29.4144-9.4208 27.7248-35.2256 0.1024-0.9728 0.128-1.9712 0.128-2.9696V175.4112a38.4 38.4 0 0 0-76.8 0v72.8576z m-191.5392 167.1424l-123.648-107.2128a5.8368 5.8368 0 0 0-9.0624 4.9152v70.4512H315.4432c-18.6112 0-33.8432 15.2576-33.8432 33.92 0 18.688 15.232 33.9456 33.8432 33.9456h281.9072v76.0832c0 4.7104 5.1712 7.5264 9.0624 4.9152l123.648-107.1872a5.9648 5.9648 0 0 0 0-9.8304zM284.2112 630.016l123.648 107.1872a5.8368 5.8368 0 0 0 9.0624-4.9408v-64.768h281.9072c18.6112 0 33.8176-15.2576 33.8176-33.92 0-18.688-15.2064-33.9456-33.792-33.9456H416.896v-81.7408a5.8368 5.8368 0 0 0-9.0624-4.9152l-123.648 107.1872a5.9648 5.9648 0 0 0 0 9.856z" fill="#10385C" p-id="32911"></path></svg>