<?xml version="1.0" standalone="no"?><!DOCTYPE svg PUBLIC "-//W3C//DTD SVG 1.1//EN" "http://www.w3.org/Graphics/SVG/1.1/DTD/svg11.dtd"><svg t="1687324898239" class="icon" viewBox="0 0 1024 1024" version="1.1" xmlns="http://www.w3.org/2000/svg" p-id="33220" xmlns:xlink="http://www.w3.org/1999/xlink" width="128" height="128"><path d="M678.5792 154.496c-135.1424-59.1616-296.448-39.8592-414.6176 62.8736L199.6288 143.488C346.88 15.4624 548.5568-8.8576 716.8512 64.3072L744.192 0l80.2304 161.664-172.032 54.5792 26.2144-61.7472z m-306.944 653.2608l-26.2144 61.7472c135.1424 59.1616 296.448 39.8592 414.6432-62.8736l64.3328 73.8816c-147.2768 128.0256-348.9536 152.3456-517.248 79.1808L279.8592 1024l-80.256-161.664 172.032-54.5792zM154.496 344.5248c-59.136 135.1168-39.8592 296.448 62.848 414.6176l-73.8816 64.3328c-128-147.2768-152.32-348.9536-79.1552-517.248L0 278.9376l161.664-80.256 54.5792 172.032-61.7472-26.1888z m805.1968 371.456L1024 743.2192l-161.664 80.256-54.5792-172.032 61.7472 26.2144c59.1616-135.1424 39.8592-296.448-62.848-414.6432l73.856-64.3328c128.0512 147.2768 152.3456 348.9536 79.1808 517.248zM332.8 307.2c-8.0896-19.9936-1.8432-35.84 18.688-47.5392 20.5312-11.6992 37.8624-7.0912 52.0192 13.7984l103.296 161.9968 106.3936-161.9968c12.672-20.0448 29.184-25.4976 49.6128-16.384 20.4032 9.1136 26.3936 25.8048 17.9968 50.1248l-105.216 160.256h87.2192c8.9344 7.2192 13.3888 16.512 13.3888 27.904 0 11.3664-4.4544 20.608-13.3888 27.7248l-113.1008 0.6656v45.9008h113.1008c9.0624 6.9632 13.5424 16.2048 13.3888 27.776-0.1536 11.5456-4.608 20.8384-13.3888 27.8272h-113.1008V742.4c2.2016 33.4848-11.776 50.5344-41.8816 51.2-30.1056 0.6656-44.7744-16.384-43.9552-51.2v-117.1456h-112.384c-11.6224-5.8624-17.4592-15.1296-17.4592-27.8272s5.8368-21.9648 17.4592-27.776h112.384l-0.6656-46.592H351.488c-11.2128-7.2448-17.024-16.4864-17.4592-27.6992-0.4096-11.2384 5.376-20.5312 17.4592-27.904h86.528L332.8 307.2z" fill="#10385C" p-id="33221"></path></svg>