<?xml version="1.0" standalone="no"?><!DOCTYPE svg PUBLIC "-//W3C//DTD SVG 1.1//EN" "http://www.w3.org/Graphics/SVG/1.1/DTD/svg11.dtd"><svg t="1687324892952" class="icon" viewBox="0 0 1024 1024" version="1.1" xmlns="http://www.w3.org/2000/svg" p-id="33065" xmlns:xlink="http://www.w3.org/1999/xlink" width="128" height="128"><path d="M744.018286 230.6816C733.394286 219.911314 716.004571 219.8016 705.234286 230.462171L512.009143 421.566171 318.765714 230.462171C307.995429 219.8016 290.605714 219.911314 279.981714 230.6816 269.321143 241.451886 269.430857 258.823314 280.201143 269.4656L466.806857 454.023314 326.866286 454.023314C311.707429 454.023314 299.437714 466.311314 299.437714 481.451886 299.437714 496.592457 311.707429 508.880457 326.866286 508.880457L484.580571 508.880457 484.580571 621.611886 326.866286 621.611886C311.707429 621.611886 299.437714 633.899886 299.437714 649.040457 299.437714 664.181029 311.707429 676.469029 326.866286 676.469029L484.580571 676.469029 484.580571 837.255314C484.580571 852.395886 496.850286 864.683886 512.009143 864.683886 527.149714 864.683886 539.437714 852.395886 539.437714 837.255314L539.437714 676.469029 697.152 676.469029C712.310857 676.469029 724.598857 664.181029 724.598857 649.040457 724.598857 633.899886 712.310857 621.611886 697.152 621.611886L539.437714 621.611886 539.437714 508.880457 697.152 508.880457C712.310857 508.880457 724.598857 496.592457 724.598857 481.451886 724.598857 466.311314 712.310857 454.023314 697.152 454.023314L557.193143 454.023314 743.798857 269.4656C754.569143 258.823314 754.678857 241.451886 744.018286 230.6816ZM27.428571 386.432 183.186286 386.432C198.326857 386.432 210.614857 374.144 210.614857 359.003429 210.614857 343.862857 198.326857 331.574857 183.186286 331.574857L91.977143 331.574857C163.510857 164.608 327.753143 54.857143 512 54.857143 764.013714 54.857143 969.033143 259.931429 969.033143 512 969.033143 527.140571 981.321143 539.428571 996.461714 539.428571 1011.602286 539.428571 1023.890286 527.140571 1023.890286 512 1023.890286 229.686857 794.258286 0 512 0 316.233143 0 140.763429 110.738286 54.857143 281.764571L54.857143 99.108571C54.857143 83.968 42.569143 71.68 27.428571 71.68 12.288 71.68 0 83.968 0 99.108571L0 359.003429C0 374.144 12.288 386.432 27.428571 386.432ZM996.571429 622.789486 840.832 622.789486C825.691429 622.789486 813.403429 635.077486 813.403429 650.218057 813.403429 665.358629 825.691429 677.646629 840.832 677.646629L938.093714 677.646629C870.509714 850.9952 700.342857 969.1392 512 969.1392 260.004571 969.1392 54.985143 764.0832 54.985143 511.996343 54.985143 496.855771 42.697143 484.567771 27.556571 484.567771 12.416 484.567771 0.128 496.855771 0.128 511.996343 0.128 794.327771 229.741714 1023.996343 512 1023.996343 706.377143 1023.996343 883.309714 911.502629 969.142857 741.920914L969.142857 910.112914C969.142857 925.253486 981.430857 937.541486 996.571429 937.541486 1011.712 937.541486 1024 925.253486 1024 910.112914L1024 650.218057C1024 635.077486 1011.712 622.789486 996.571429 622.789486Z" fill="#050001" p-id="33066"></path></svg>