<?xml version="1.0" standalone="no"?><!DOCTYPE svg PUBLIC "-//W3C//DTD SVG 1.1//EN" "http://www.w3.org/Graphics/SVG/1.1/DTD/svg11.dtd"><svg t="1687324887265" class="icon" viewBox="0 0 1024 1024" version="1.1" xmlns="http://www.w3.org/2000/svg" p-id="32755" xmlns:xlink="http://www.w3.org/1999/xlink" width="128" height="128"><path d="M959.363122 524.188098c-31.96878 0.274732-188.690732-88.438634-193.610927-93.059122-11.88839-11.114146-7.442732-25.000585 4.745366-26.848781 12.088195-1.898146 80.296585-9.84039 80.296585-9.84039-41.934049-109.867707-135.417756-197.557073-258.197853-226.029268C396.712585 123.079805 194.085463 251.829073 149.354146 448.312195c-0.424585 1.673366-3.121951 21.72878-19.356097 21.10439-10.989268-0.449561-46.954146-14.485854-59.991415-20.455024-14.860488-6.843317-18.856585-5.045073-14.385951-27.048585C106.570927 172.056976 367.541073 3.671415 618.046439 61.265171c207.872 47.828293 352.330927 224.705561 368.140488 426.183805 2.697366 26.973659-11.363902 36.614244-26.823805 36.739122zM258.422634 630.534244c16.309073 10.24 12.437854 30.794927-5.544585 32.618146-17.957463 1.873171-74.227512 6.718439-74.227512 6.718439 44.606439 102.449951 134.968195 183.221073 251.854048 210.269659 195.883707 45.405659 396.238049-77.174634 441.044293-273.682732 0.924098-3.996098 0.874146-3.396683 2.497561-12.063219 1.598439-8.691512 4.195902-21.853659 21.479024-15.984391 17.208195 5.944195 59.242146 17.982439 72.379317 21.479025 13.112195 3.421659 11.638634 8.441756 9.990244 20.430049-0.449561 3.646439-1.24878 6.993171-2.048 10.439804-58.617756 255.500488-313.893463 414.969756-570.118244 356.002342C198.056585 938.983024 53.697561 762.530341 37.588293 561.351805c-2.197854-34.59122 22.727805-41.634341 48.177951-28.472195 20.030439 10.439805 156.297366 87.364683 172.65639 97.654634zM337.170732 324.682927c-7.892293-19.505951-1.798244-34.965854 18.232195-46.379707 20.030439-11.413854 36.938927-6.918244 50.750439 13.461853l100.776585 158.045659 103.798634-158.045659c12.362927-19.555902 28.472195-24.875707 48.402732-15.98439 19.905561 8.891317 25.749854 25.175415 17.557854 48.902244l-102.649756 156.347317h85.091902c8.716488 7.043122 13.062244 16.109268 13.062244 27.223415 0 11.089171-4.345756 20.105366-13.062244 27.048585l-110.342244 0.649366v44.781268h110.342244c8.841366 6.793366 13.212098 15.809561 13.062244 27.098537-0.149854 11.264-4.49561 20.330146-13.062244 27.148487h-110.342244V749.268293c2.147902 32.668098-11.48878 49.301854-40.860097 49.951219-29.371317 0.649366-43.682341-15.98439-42.883122-49.951219v-114.288391h-109.642927c-11.338927-5.719415-17.033366-14.760585-17.033366-27.148487s5.694439-21.429073 17.033366-27.098537h109.642927l-0.649366-45.45561H355.402927c-10.939317-7.068098-16.60878-16.084293-17.033366-27.023609-0.39961-10.964293 5.244878-20.030439 17.033366-27.223415h84.417561L337.170732 324.682927z" fill="#10385C" p-id="32756"></path></svg>